Hind-Light.ufo
<glyph name="numbersign" format="1">
  <advance width="697"/>
  <unicode hex="0023"/>
  <outline>
    <contour>
      <point x="436" y="0" type="line"/>
      <point x="577" y="674" type="line"/>
      <point x="520" y="674" type="line"/>
      <point x="377" y="0" type="line"/>
    </contour>
    <contour>
      <point x="585" y="174" type="line"/>
      <point x="585" y="225" type="line"/>
      <point x="55" y="225" type="line"/>
      <point x="55" y="174" type="line"/>
    </contour>
    <contour>
      <point x="187" y="0" type="line"/>
      <point x="330" y="674" type="line"/>
      <point x="271" y="674" type="line"/>
      <point x="130" y="0" type="line"/>
    </contour>
    <contour>
      <point x="642" y="449" type="line"/>
      <point x="642" y="500" type="line"/>
      <point x="114" y="500" type="line"/>
      <point x="114" y="449" type="line"/>
    </contour>
  </outline>
</glyph>
<glyph name="quotesingle" format="1">
  <advance width="147"/>
  <unicode hex="0027"/>
  <outline>
    <contour>
      <point x="102" y="451" type="line"/>
      <point x="102" y="681" type="line"/>
      <point x="45" y="681" type="line"/>
      <point x="45" y="451" type="line"/>
    </contour>
  </outline>
</glyph>
<glyph name="parenright" format="1">
  <advance width="303"/>
  <unicode hex="0029"/>
  <outline>
    <contour>
      <point x="63" y="-196" type="line"/>
      <point x="169" y="-61"/>
      <point x="223" y="103"/>
      <point x="223" y="262" type="curve" smooth="yes"/>
      <point x="223" y="424"/>
      <point x="162" y="587"/>
      <point x="71" y="707" type="curve"/>
      <point x="0" y="707" type="line"/>
      <point x="107" y="560"/>
      <point x="158" y="419"/>
      <point x="158" y="257" type="curve" smooth="yes"/>
      <point x="158" y="101"/>
      <point x="101" y="-54"/>
      <point x="-7" y="-196" type="curve"/>
    </contour>
  </outline>
</glyph>
<glyph name="plus" format="1">
  <advance width="544"/>
  <unicode hex="002B"/>
  <outline>
    <contour>
      <point x="296" y="120" type="line"/>
      <point x="296" y="560" type="line"/>
      <point x="239" y="560" type="line"/>
      <point x="239" y="120" type="line"/>
    </contour>
    <contour>
      <point x="484" y="312" type="line"/>
      <point x="484" y="368" type="line"/>
      <point x="60" y="368" type="line"/>
      <point x="60" y="312" type="line"/>
    </contour>
  </outline>
</glyph>
<glyph name="comma" format="1">
  <advance width="207"/>
  <unicode hex="002C"/>
  <outline>
    <contour>
      <point x="46" y="-122" type="line"/>
      <point x="173" y="92" type="line"/>
      <point x="83" y="92" type="line"/>
      <point x="-8" y="-122" type="line"/>
    </contour>
  </outline>
</glyph>
<glyph name="period" format="1">
  <advance width="142"/>
  <unicode hex="002E"/>
  <outline>
    <contour>
      <point x="100" y="-8"/>
      <point x="122" y="14"/>
      <point x="122" y="43" type="curve" smooth="yes"/>
      <point x="122" y="72"/>
      <point x="100" y="94"/>
      <point x="71" y="94" type="curve" smooth="yes"/>
      <point x="42" y="94"/>
      <point x="20" y="72"/>
      <point x="20" y="43" type="curve" smooth="yes"/>
      <point x="20" y="14"/>
      <point x="42" y="-8"/>
      <point x="71" y="-8" type="curve" smooth="yes"/>
    </contour>
  </outline>
</glyph>
<glyph name="zero" format="1">
  <advance width="543"/>
  <unicode hex="0030"/>
  <outline>
    <contour>
      <point x="417" y="-8"/>
      <point x="498" y="131"/>
      <point x="498" y="329" type="curve" smooth="yes"/>
      <point x="498" y="537"/>
      <point x="403" y="660"/>
      <point x="269" y="660" type="curve" smooth="yes"/>
      <point x="142" y="660"/>
      <point x="45" y="537"/>
      <point x="45" y="329" type="curve" smooth="yes"/>
      <point x="45" y="125"/>
      <point x="137" y="-8"/>
      <point x="269" y="-8" type="curve" smooth="yes"/>
    </contour>
    <contour>
      <point x="185" y="52"/>
      <point x="108" y="148"/>
      <point x="108" y="329" type="curve" smooth="yes"/>
      <point x="108" y="513"/>
      <point x="192" y="600"/>
      <point x="269" y="600" type="curve" smooth="yes"/>
      <point x="357" y="600"/>
      <point x="435" y="513"/>
      <point x="435" y="329" type="curve" smooth="yes"/>
      <point x="435" y="148"/>
      <point x="367" y="52"/>
      <point x="269" y="52" type="curve" smooth="yes"/>
    </contour>
  </outline>
</glyph>
<glyph name="one" format="1">
  <advance width="308"/>
  <unicode hex="0031"/>
  <outline>
    <contour>
      <point x="228" y="0" type="line"/>
      <point x="228" y="654" type="line"/>
      <point x="167" y="654" type="line"/>
      <point x="20" y="564" type="line"/>
      <point x="20" y="495" type="line"/>
      <point x="167" y="587" type="line"/>
      <point x="167" y="0" type="line"/>
    </contour>
  </outline>
</glyph>
<glyph name="four" format="1">
  <advance width="534"/>
  <unicode hex="0034"/>
  <outline>
    <contour>
      <point x="108" y="219" type="line"/>
      <point x="369" y="654" type="line"/>
      <point x="307" y="654" type="line"/>
      <point x="45" y="219" type="line"/>
    </contour>
    <contour>
      <point x="509" y="164" type="line"/>
      <point x="509" y="219" type="line"/>
      <point x="45" y="219" type="line"/>
      <point x="45" y="164" type="line"/>
    </contour>
    <contour>
      <point x="408" y="0" type="line"/>
      <point x="408" y="654" type="line"/>
      <point x="348" y="654" type="line"/>
      <point x="348" y="0" type="line"/>
    </contour>
  </outline>
</glyph>
<glyph name="colon" format="1">
  <advance width="222"/>
  <unicode hex="003A"/>
  <outline>
    <contour>
      <point x="139" y="319"/>
      <point x="162" y="340"/>
      <point x="162" y="369" type="curve" smooth="yes"/>
      <point x="162" y="397"/>
      <point x="139" y="420"/>
      <point x="110" y="420" type="curve" smooth="yes"/>
      <point x="81" y="420"/>
      <point x="60" y="397"/>
      <point x="60" y="369" type="curve" smooth="yes"/>
      <point x="60" y="340"/>
      <point x="81" y="319"/>
      <point x="110" y="319" type="curve" smooth="yes"/>
    </contour>
    <contour>
      <point x="139" y="-1"/>
      <point x="162" y="20"/>
      <point x="162" y="49" type="curve" smooth="yes"/>
      <point x="162" y="77"/>
      <point x="139" y="100"/>
      <point x="110" y="100" type="curve" smooth="yes"/>
      <point x="81" y="100"/>
      <point x="60" y="77"/>
      <point x="60" y="49" type="curve" smooth="yes"/>
      <point x="60" y="20"/>
      <point x="81" y="-1"/>
      <point x="110" y="-1" type="curve" smooth="yes"/>
    </contour>
  </outline>
</glyph>
<glyph name="E" format="1">
  <advance width="490"/>
  <unicode hex="0045"/>
  <outline>
    <contour>
      <point x="142" y="0" type="line"/>
      <point x="142" y="674" type="line"/>
      <point x="80" y="674" type="line"/>
      <point x="80" y="0" type="line"/>
    </contour>
    <contour>
      <point x="445" y="0" type="line"/>
      <point x="445" y="57" type="line"/>
      <point x="88" y="57" type="line"/>
      <point x="88" y="0" type="line"/>
    </contour>
    <contour>
      <point x="404" y="308" type="line"/>
      <point x="404" y="365" type="line"/>
      <point x="88" y="365" type="line"/>
      <point x="88" y="308" type="line"/>
    </contour>
    <contour>
      <point x="439" y="617" type="line"/>
      <point x="439" y="674" type="line"/>
      <point x="88" y="674" type="line"/>
      <point x="88" y="617" type="line"/>
    </contour>
  </outline>
</glyph>
<glyph name="K" format="1">
  <advance width="549"/>
  <unicode hex="004B"/>
  <outline>
    <contour>
      <point x="519" y="0" type="line"/>
      <point x="239" y="332" type="line"/>
      <point x="160" y="332" type="line"/>
      <point x="437" y="0" type="line"/>
    </contour>
    <contour>
      <point x="142" y="0" type="line"/>
      <point x="142" y="674" type="line"/>
      <point x="80" y="674" type="line"/>
      <point x="80" y="0" type="line"/>
    </contour>
    <contour>
      <point x="239" y="332" type="line"/>
      <point x="505" y="674" type="line"/>
      <point x="427" y="674" type="line"/>
      <point x="160" y="332" type="line"/>
    </contour>
  </outline>
</glyph>
<glyph name="X" format="1">
  <advance width="600"/>
  <unicode hex="0058"/>
  <outline>
    <contour>
      <point x="114" y="0" type="line"/>
      <point x="295" y="287" type="line"/>
      <point x="486" y="0" type="line"/>
      <point x="558" y="0" type="line"/>
      <point x="329" y="340" type="line"/>
      <point x="533" y="674" type="line"/>
      <point x="461" y="674" type="line"/>
      <point x="294" y="396" type="line"/>
      <point x="127" y="674" type="line"/>
      <point x="55" y="674" type="line"/>
      <point x="260" y="340" type="line"/>
      <point x="42" y="0" type="line"/>
    </contour>
  </outline>
</glyph>
<glyph name="bracketleft" format="1">
  <advance width="296"/>
  <unicode hex="005B"/>
  <outline>
    <contour>
      <point x="142" y="-179" type="line"/>
      <point x="142" y="707" type="line"/>
      <point x="80" y="707" type="line"/>
      <point x="80" y="-179" type="line"/>
    </contour>
    <contour>
      <point x="296" y="-179" type="line"/>
      <point x="296" y="-123" type="line"/>
      <point x="80" y="-123" type="line"/>
      <point x="80" y="-179" type="line"/>
    </contour>
    <contour>
      <point x="296" y="652" type="line"/>
      <point x="296" y="707" type="line"/>
      <point x="80" y="707" type="line"/>
      <point x="80" y="652" type="line"/>
    </contour>
  </outline>
</glyph>
<glyph name="backslash" format="1">
  <advance width="386"/>
  <unicode hex="005C"/>
  <outline>
    <contour>
      <point x="398" y="-103" type="line"/>
      <point x="32" y="707" type="line"/>
      <point x="-30" y="707" type="line"/>
      <point x="336" y="-103" type="line"/>
    </contour>
  </outline>
</glyph>
<glyph name="bracketright" format="1">
  <advance width="296"/>
  <unicode hex="005D"/>
  <outline>
    <contour>
      <point x="216" y="-179" type="line"/>
      <point x="216" y="707" type="line"/>
      <point x="154" y="707" type="line"/>
      <point x="154" y="-179" type="line"/>
    </contour>
    <contour>
      <point x="216" y="-179" type="line"/>
      <point x="216" y="-123" type="line"/>
      <point x="0" y="-123" type="line"/>
      <point x="0" y="-179" type="line"/>
    </contour>
    <contour>
      <point x="216" y="652" type="line"/>
      <point x="216" y="707" type="line"/>
      <point x="0" y="707" type="line"/>
      <point x="0" y="652" type="line"/>
    </contour>
  </outline>
</glyph>
<glyph name="h" format="1">
  <advance width="529"/>
  <unicode hex="0068"/>
  <outline>
    <contour>
      <point x="459" y="0" type="line"/>
      <point x="459" y="354" type="line" smooth="yes"/>
      <point x="459" y="448"/>
      <point x="397" y="515"/>
      <point x="298" y="515" type="curve" smooth="yes"/>
      <point x="185" y="515"/>
      <point x="110" y="441"/>
      <point x="110" y="280" type="curve"/>
      <point x="137" y="280" type="line"/>
      <point x="137" y="394"/>
      <point x="212" y="456"/>
      <point x="289" y="456" type="curve" smooth="yes"/>
      <point x="351" y="456"/>
      <point x="398" y="416"/>
      <point x="398" y="335" type="curve" smooth="yes"/>
      <point x="398" y="0" type="line"/>
    </contour>
    <contour>
      <point x="137" y="0" type="line"/>
      <point x="137" y="707" type="line"/>
      <point x="76" y="707" type="line"/>
      <point x="76" y="0" type="line"/>
    </contour>
  </outline>
</glyph>
<glyph name="o" format="1">
  <advance width="561"/>
  <unicode hex="006F"/>
  <outline>
    <contour>
      <point x="430" y="-9"/>
      <point x="516" y="106"/>
      <point x="516" y="251" type="curve" smooth="yes"/>
      <point x="516" y="396"/>
      <point x="435" y="514"/>
      <point x="278" y="514" type="curve" smooth="yes"/>
      <point x="138" y="514"/>
      <point x="45" y="396"/>
      <point x="45" y="251" type="curve" smooth="yes"/>
      <point x="45" y="106"/>
      <point x="132" y="-9"/>
      <point x="278" y="-9" type="curve" smooth="yes"/>
    </contour>
    <contour>
      <point x="174" y="49"/>
      <point x="109" y="144"/>
      <point x="109" y="251" type="curve" smooth="yes"/>
      <point x="109" y="358"/>
      <point x="168" y="456"/>
      <point x="278" y="456" type="curve" smooth="yes"/>
      <point x="403" y="456"/>
      <point x="452" y="358"/>
      <point x="452" y="251" type="curve" smooth="yes"/>
      <point x="452" y="144"/>
      <point x="394" y="49"/>
      <point x="278" y="49" type="curve" smooth="yes"/>
    </contour>
  </outline>
</glyph>
<glyph name="q" format="1">
  <advance width="555"/>
  <unicode hex="0071"/>
  <outline>
    <contour>
      <point x="394" y="-8"/>
      <point x="464" y="110"/>
      <point x="464" y="251" type="curve" smooth="yes"/>
      <point x="464" y="366"/>
      <point x="420" y="515"/>
      <point x="261" y="515" type="curve" smooth="yes"/>
      <point x="119" y="515"/>
      <point x="45" y="394"/>
      <point x="45" y="259" type="curve" smooth="yes"/>
      <point x="45" y="102"/>
      <point x="135" y="-8"/>
      <point x="263" y="-8" type="curve" smooth="yes"/>
    </contour>
    <contour>
      <point x="179" y="50"/>
      <point x="109" y="119"/>
      <point x="109" y="260" type="curve" smooth="yes"/>
      <point x="109" y="377"/>
      <point x="173" y="457"/>
      <point x="259" y="457" type="curve" smooth="yes"/>
      <point x="332" y="457"/>
      <point x="418" y="413"/>
      <point x="418" y="251" type="curve" smooth="yes"/>
      <point x="418" y="93"/>
      <point x="323" y="50"/>
      <point x="265" y="50" type="curve" smooth="yes"/>
    </contour>
    <contour>
      <point x="479" y="-200" type="line"/>
      <point x="479" y="507" type="line"/>
      <point x="418" y="507" type="line"/>
      <point x="418" y="-200" type="line"/>
    </contour>
  </outline>
</glyph>
<glyph name="u" format="1">
  <advance width="529"/>
  <unicode hex="0075"/>
  <outline>
    <contour>
      <point x="339" y="-7"/>
      <point x="411" y="53"/>
      <point x="411" y="206" type="curve"/>
      <point x="392" y="225" type="line"/>
      <point x="392" y="123"/>
      <point x="332" y="52"/>
      <point x="242" y="52" type="curve" smooth="yes"/>
      <point x="177" y="52"/>
      <point x="131" y="92"/>
      <point x="131" y="172" type="curve" smooth="yes"/>
      <point x="131" y="507" type="line"/>
      <point x="70" y="507" type="line"/>
      <point x="70" y="155" type="line" smooth="yes"/>
      <point x="70" y="59"/>
      <point x="132" y="-7"/>
      <point x="231" y="-7" type="curve" smooth="yes"/>
    </contour>
    <contour>
      <point x="453" y="0" type="line"/>
      <point x="453" y="507" type="line"/>
      <point x="392" y="507" type="line"/>
      <point x="392" y="0" type="line"/>
    </contour>
  </outline>
</glyph>
<glyph name="v" format="1">
  <advance width="497"/>
  <unicode hex="0076"/>
  <outline>
    <contour>
      <point x="287" y="0" type="line"/>
      <point x="467" y="507" type="line"/>
      <point x="403" y="507" type="line"/>
      <point x="329" y="294" type="line" smooth="yes"/>
      <point x="256" y="86"/>
      <point x="246" y="49"/>
      <point x="246" y="49" type="curve"/>
      <point x="246" y="49"/>
      <point x="234" y="86"/>
      <point x="165" y="294" type="curve" smooth="yes"/>
      <point x="94" y="507" type="line"/>
      <point x="30" y="507" type="line"/>
      <point x="205" y="0" type="line"/>
    </contour>
  </outline>
</glyph>
<glyph name="w" format="1">
  <advance width="788"/>
  <unicode hex="0077"/>
  <outline>
    <contour>
      <point x="267" y="0" type="line"/>
      <point x="314" y="166" type="line" smooth="yes"/>
      <point x="372" y="373"/>
      <point x="389" y="436"/>
      <point x="389" y="436" type="curve"/>
      <point x="389" y="436"/>
      <point x="406" y="374"/>
      <point x="467" y="166" type="curve" smooth="yes"/>
      <point x="516" y="0" type="line"/>
      <point x="598" y="0" type="line"/>
      <point x="758" y="507" type="line"/>
      <point x="694" y="507" type="line"/>
      <point x="642" y="340" type="line" smooth="yes"/>
      <point x="573" y="118"/>
      <point x="557" y="59"/>
      <point x="557" y="59" type="curve"/>
      <point x="557" y="59"/>
      <point x="541" y="118"/>
      <point x="475" y="340" type="curve" smooth="yes"/>
      <point x="425" y="507" type="line"/>
      <point x="353" y="507" type="line"/>
      <point x="305" y="340" type="line" smooth="yes"/>
      <point x="243" y="126"/>
      <point x="225" y="61"/>
      <point x="225" y="61" type="curve"/>
      <point x="225" y="61"/>
      <point x="211" y="127"/>
      <point x="147" y="339" type="curve" smooth="yes"/>
      <point x="97" y="507" type="line"/>
      <point x="30" y="507" type="line"/>
      <point x="185" y="0" type="line"/>
    </contour>
  </outline>
</glyph>
<glyph name="y" format="1">
  <advance width="482"/>
  <unicode hex="0079"/>
  <outline>
    <contour>
      <point x="148" y="-168"/>
      <point x="224" y="-135"/>
      <point x="279" y="13" type="curve" smooth="yes"/>
      <point x="463" y="507" type="line"/>
      <point x="395" y="507" type="line"/>
      <point x="333" y="337" type="line" smooth="yes"/>
      <point x="253" y="116"/>
      <point x="246" y="93"/>
      <point x="246" y="93" type="curve"/>
      <point x="246" y="93"/>
      <point x="237" y="116"/>
      <point x="148" y="337" type="curve" smooth="yes"/>
      <point x="79" y="507" type="line"/>
      <point x="9" y="507" type="line"/>
      <point x="216" y="14" type="line"/>
      <point x="188" y="-67"/>
      <point x="135" y="-108"/>
      <point x="67" y="-108" type="curve" smooth="yes"/>
      <point x="57" y="-108"/>
      <point x="44" y="-106"/>
      <point x="33" y="-103" type="curve"/>
      <point x="33" y="-163" type="line"/>
      <point x="44" y="-166"/>
      <point x="60" y="-168"/>
      <point x="71" y="-168" type="curve" smooth="yes"/>
    </contour>
  </outline>
</glyph>
<glyph name="sterling" format="1">
  <advance width="517"/>
  <unicode hex="00A3"/>
  <outline>
    <contour>
      <point x="477" y="0" type="line"/>
      <point x="477" y="55" type="line"/>
      <point x="147" y="55" type="line"/>
      <point x="188" y="80"/>
      <point x="231" y="121"/>
      <point x="231" y="250" type="curve"/>
      <point x="231" y="315"/>
      <point x="214" y="396"/>
      <point x="214" y="463" type="curve"/>
      <point x="214" y="558"/>
      <point x="264" y="600"/>
      <point x="351" y="600" type="curve" smooth="yes"/>
      <point x="389" y="600"/>
      <point x="415" y="593"/>
      <point x="451" y="573" type="curve"/>
      <point x="451" y="635" type="line"/>
      <point x="421" y="650"/>
      <point x="384" y="659"/>
      <point x="350" y="659" type="curve" smooth="yes"/>
      <point x="229" y="659"/>
      <point x="154" y="589"/>
      <point x="154" y="457" type="curve"/>
      <point x="154" y="398"/>
      <point x="171" y="312"/>
      <point x="171" y="249" type="curve"/>
      <point x="171" y="136"/>
      <point x="148" y="90"/>
      <point x="65" y="52" type="curve"/>
      <point x="65" y="0" type="line"/>
    </contour>
    <contour>
      <point x="407" y="299" type="line"/>
      <point x="407" y="350" type="line"/>
      <point x="72" y="350" type="line"/>
      <point x="72" y="299" type="line"/>
    </contour>
  </outline>
</glyph>
<glyph name="softhyphen" format="1">
  <advance width="345"/>
  <unicode hex="00AD"/>
  <outline>
    <contour>
      <point x="285" y="243" type="line"/>
      <point x="285" y="298" type="line"/>
      <point x="60" y="298" type="line"/>
      <point x="60" y="243" type="line"/>
    </contour>
  </outline>
</glyph>
<glyph name="plusminus" format="1">
  <advance width="544"/>
  <unicode hex="00B1"/>
  <outline>
    <contour>
      <point x="484" y="332" type="line"/>
      <point x="484" y="388" type="line"/>
      <point x="60" y="388" type="line"/>
      <point x="60" y="332" type="line"/>
    </contour>
    <contour>
      <point x="484" y="31" type="line"/>
      <point x="484" y="87" type="line"/>
      <point x="60" y="87" type="line"/>
      <point x="60" y="31" type="line"/>
    </contour>
    <contour>
      <point x="296" y="155" type="line"/>
      <point x="296" y="565" type="line"/>
      <point x="239" y="565" type="line"/>
      <point x="239" y="155" type="line"/>
    </contour>
  </outline>
</glyph>
<glyph name="endash" format="1">
  <advance width="536"/>
  <unicode hex="2013"/>
  <outline>
    <contour>
      <point x="476" y="243" type="line"/>
      <point x="476" y="298" type="line"/>
      <point x="60" y="298" type="line"/>
      <point x="60" y="243" type="line"/>
    </contour>
  </outline>
</glyph>
<glyph name="quotedblright" format="1">
  <advance width="289"/>
  <unicode hex="201D"/>
  <outline>
    <contour>
      <point x="53" y="481" type="line"/>
      <point x="168" y="695" type="line"/>
      <point x="87" y="695" type="line"/>
      <point x="8" y="481" type="line"/>
    </contour>
    <contour>
      <point x="185" y="481" type="line"/>
      <point x="300" y="695" type="line"/>
      <point x="219" y="695" type="line"/>
      <point x="140" y="481" type="line"/>
    </contour>
  </outline>
</glyph>
<glyph name="quotedblbase" format="1">
  <advance width="289"/>
  <unicode hex="201E"/>
  <outline>
    <contour>
      <point x="49" y="-122" type="line"/>
      <point x="164" y="92" type="line"/>
      <point x="83" y="92" type="line"/>
      <point x="4" y="-122" type="line"/>
    </contour>
    <contour>
      <point x="181" y="-122" type="line"/>
      <point x="296" y="92" type="line"/>
      <point x="215" y="92" type="line"/>
      <point x="136" y="-122" type="line"/>
    </contour>
  </outline>
</glyph>
<glyph name="daggerdbl" format="1">
  <advance width="514"/>
  <unicode hex="2021"/>
  <outline>
    <contour>
      <point x="281" y="0" type="line"/>
      <point x="281" y="674" type="line"/>
      <point x="224" y="674" type="line"/>
      <point x="224" y="0" type="line"/>
    </contour>
    <contour>
      <point x="469" y="189" type="line"/>
      <point x="469" y="245" type="line"/>
      <point x="45" y="245" type="line"/>
      <point x="45" y="189" type="line"/>
    </contour>
    <contour>
      <point x="469" y="442" type="line"/>
      <point x="469" y="498" type="line"/>
      <point x="45" y="498" type="line"/>
      <point x="45" y="442" type="line"/>
    </contour>
  </outline>
</glyph>
<glyph name="bullet" format="1">
  <advance width="455"/>
  <unicode hex="2022"/>
  <outline>
    <contour>
      <point x="302" y="223"/>
      <point x="360" y="281"/>
      <point x="360" y="356" type="curve"/>
      <point x="360" y="431"/>
      <point x="302" y="489"/>
      <point x="227" y="489" type="curve"/>
      <point x="151" y="489"/>
      <point x="95" y="431"/>
      <point x="95" y="356" type="curve"/>
      <point x="95" y="281"/>
      <point x="151" y="223"/>
      <point x="228" y="223" type="curve"/>
    </contour>
  </outline>
</glyph>
<glyph name="guilsinglleft" format="1">
  <advance width="280"/>
  <unicode hex="2039"/>
  <outline>
    <contour>
      <point x="103" y="253" type="line"/>
      <point x="250" y="415" type="line"/>
      <point x="180" y="415" type="line"/>
      <point x="30" y="253" type="line"/>
    </contour>
    <contour>
      <point x="250" y="91" type="line"/>
      <point x="103" y="253" type="line"/>
      <point x="30" y="253" type="line"/>
      <point x="180" y="91" type="line"/>
    </contour>
  </outline>
</glyph>
<glyph name="Euro" format="1">
  <advance width="582"/>
  <unicode hex="20AC"/>
  <outline>
    <contour>
      <point x="467" y="-8"/>
      <point x="507" y="-5"/>
      <point x="542" y="13" type="curve"/>
      <point x="542" y="72" type="line"/>
      <point x="511" y="55"/>
      <point x="470" y="51"/>
      <point x="433" y="51" type="curve" smooth="yes"/>
      <point x="313" y="51"/>
      <point x="213" y="148"/>
      <point x="213" y="325" type="curve" smooth="yes"/>
      <point x="213" y="504"/>
      <point x="306" y="600"/>
      <point x="438" y="600" type="curve" smooth="yes"/>
      <point x="475" y="600"/>
      <point x="513" y="596"/>
      <point x="542" y="581" type="curve"/>
      <point x="542" y="640" type="line"/>
      <point x="512" y="655"/>
      <point x="469" y="659"/>
      <point x="432" y="659" type="curve" smooth="yes"/>
      <point x="269" y="659"/>
      <point x="149" y="532"/>
      <point x="149" y="325" type="curve" smooth="yes"/>
      <point x="149" y="120"/>
      <point x="271" y="-8"/>
      <point x="425" y="-8" type="curve" smooth="yes"/>
    </contour>
    <contour>
      <point x="430" y="226" type="line"/>
      <point x="430" y="275" type="line"/>
      <point x="55" y="275" type="line"/>
      <point x="55" y="226" type="line"/>
    </contour>
    <contour>
      <point x="430" y="385" type="line"/>
      <point x="430" y="434" type="line"/>
      <point x="55" y="434" type="line"/>
      <point x="55" y="385" type="line"/>
    </contour>
  </outline>
</glyph>
<glyph name="notequal" format="1">
  <advance width="544"/>
  <unicode hex="2260"/>
  <outline>
    <contour>
      <point x="203" y="125" type="line"/>
      <point x="392" y="555" type="line"/>
      <point x="341" y="555" type="line"/>
      <point x="152" y="125" type="line"/>
    </contour>
    <contour>
      <point x="484" y="215" type="line"/>
      <point x="484" y="271" type="line"/>
      <point x="60" y="271" type="line"/>
      <point x="60" y="215" type="line"/>
    </contour>
    <contour>
      <point x="484" y="410" type="line"/>
      <point x="484" y="465" type="line"/>
      <point x="60" y="465" type="line"/>
      <point x="60" y="410" type="line"/>
    </contour>
  </outline>
</glyph>
<glyph name="ITF" format="1">
  <advance width="1623"/>
  <outline>
    <contour>
      <point x="1292" y="0" type="line"/>
      <point x="1292" y="674" type="line"/>
      <point x="1084" y="674" type="line"/>
      <point x="1084" y="0" type="line"/>
    </contour>
    <contour>
      <point x="288" y="0" type="line"/>
      <point x="288" y="674" type="line"/>
      <point x="80" y="674" type="line"/>
      <point x="80" y="0" type="line"/>
    </contour>
    <contour>
      <point x="539" y="477" type="line"/>
      <point x="539" y="674" type="line"/>
      <point x="331" y="674" type="line"/>
      <point x="331" y="477" type="line"/>
    </contour>
    <contour>
      <point x="790" y="0" type="line"/>
      <point x="790" y="674" type="line"/>
      <point x="582" y="674" type="line"/>
      <point x="582" y="0" type="line"/>
    </contour>
    <contour>
      <point x="1041" y="477" type="line"/>
      <point x="1041" y="674" type="line"/>
      <point x="833" y="674" type="line"/>
      <point x="833" y="477" type="line"/>
    </contour>
    <contour>
      <point x="1543" y="238" type="line"/>
      <point x="1543" y="435" type="line"/>
      <point x="1334" y="435" type="line"/>
      <point x="1334" y="238" type="line"/>
    </contour>
    <contour>
      <point x="1543" y="477" type="line"/>
      <point x="1543" y="674" type="line"/>
      <point x="1334" y="674" type="line"/>
      <point x="1334" y="477" type="line"/>
    </contour>
  </outline>
</glyph>
